<?xml version="1.0" encoding="UTF-8"?>
<svg xmlns="http://www.w3.org/2000/svg" viewBox="0 0 200 100">
  <!-- Cape -->
  <path fill="#FF0000" d="M80,30 C80,30 90,35 100,35 C110,35 120,30 120,30 L140,80 L60,80 Z" />
  
  <!-- Body -->
  <path fill="#0066CC" d="M90,20 C90,20 95,15 100,15 C105,15 110,20 110,20 L115,50 L85,50 Z" />
  
  <!-- Arms -->
  <path fill="#0066CC" d="M85,25 L65,15 L70,25 Z" />
  <path fill="#0066CC" d="M115,25 L135,15 L130,25 Z" />
  
  <!-- Head -->
  <circle cx="100" cy="15" r="8" fill="#FFE0BD" />
  
  <!-- S Shield -->
  <path fill="#FFD700" d="M95,25 L105,25 L105,35 L95,35 Z" />
  <path fill="#FF0000" d="M97,27 C97,27 100,27 101,28 C102,29 101,30 100,31 C101,32 102,33 101,34 C100,35 97,35 97,35 L97,34 C97,34 99,34 100,33 C101,32 100,31 99,31 C98,31 97,30 98,29 C99,28 100,28 97,28 Z" />
  
  <!-- Legs -->
  <path fill="#0066CC" d="M90,50 L80,70 L85,70 L90,60 Z" />
  <path fill="#0066CC" d="M110,50 L120,70 L115,70 L110,60 Z" />
  
  <!-- Boots -->
  <path fill="#FF0000" d="M80,70 L85,70 L87,75 L78,75 Z" />
  <path fill="#FF0000" d="M115,70 L120,70 L122,75 L113,75 Z" />
</svg> 